<svg xmlns="http://www.w3.org/2000/svg" width="640" height="360" viewBox="0 0 640 360">
  <rect width="640" height="360" fill="#b6e3ff" />
  <circle cx="335" cy="62" r="26" fill="#ffd25f" />
  <rect x="20" y="142" width="260" height="120" fill="#f0e1cc" />
  <polygon points="20,142 150,74 280,142" fill="#8d4f3f" />
  <rect x="64" y="182" width="58" height="80" fill="#c7ad8e" />
  <rect x="168" y="178" width="70" height="42" fill="#9ec4df" />
  <rect x="0" y="245" width="640" height="115" fill="#ceb594" />
  <rect x="220" y="210" width="360" height="110" rx="10" fill="#36aaf7" />
  <rect x="220" y="210" width="360" height="8" fill="#e5f7ff" opacity="0.75" />
  <rect x="560" y="170" width="10" height="75" fill="#c5c5c5" />
  <line x1="570" y1="170" x2="590" y2="170" stroke="#c5c5c5" stroke-width="4" />
  
  <ellipse cx="332" cy="270" rx="20" ry="9" fill="#ffe082" opacity="0.85" />
  <rect x="258" y="196" width="6" height="52" fill="#6d4c41" />
  <polygon points="230,196 261,170 292,196" fill="#ef5350" />
  
    <rect x="84" y="292" width="58" height="10" rx="2" fill="#8d6e63" />
    <rect x="150" y="292" width="58" height="10" rx="2" fill="#8d6e63" />
  
  <ellipse cx="603" cy="234" rx="22" ry="12" fill="#5c9d45" />
  <ellipse cx="618" cy="220" rx="20" ry="10" fill="#5c9d45" />
  <text x="18" y="28" font-family="Arial, sans-serif" font-size="14" fill="#1d3557">Residential Pool Exterior</text>
  <text x="18" y="48" font-family="Arial, sans-serif" font-size="12" fill="#1d3557">No diving board</text>
</svg>